<svg width="47" height="45" viewBox="0 0 47 45" fill="none" xmlns="http://www.w3.org/2000/svg">
<path fill-rule="evenodd" clip-rule="evenodd" d="M23.0657 0.584206C21.284 0.969839 19.8047 2.42502 19.3796 4.21032C19.0503 5.5934 19.4368 7.42461 20.2484 8.32682C20.9077 9.05988 21.7984 9.38309 23.6125 9.54784C24.4263 9.62173 25.2437 9.47699 25.5087 9.21207C25.6773 9.04355 25.6875 8.96015 25.632 8.21112C25.5986 7.76173 25.539 7.15189 25.4993 6.85594C25.4149 6.2253 25.4994 5.84002 25.78 5.57654C26.1421 5.23646 26.9715 4.92715 27.946 4.76868C28.6651 4.65173 28.8971 4.58107 28.8958 4.47937C28.8923 4.20799 28.4569 3.11701 28.1801 2.68582C27.5194 1.65662 26.3181 0.839172 25.0845 0.579184C24.3186 0.417757 23.829 0.418922 23.0657 0.584206ZM27.6381 5.19682C26.8166 5.36462 26.2645 5.60165 25.9909 5.90405C25.8369 6.07427 25.8282 6.16736 25.8992 6.87764C25.9425 7.30964 25.9787 8.03535 25.9798 8.4903C25.9815 9.20005 25.9563 9.34273 25.8023 9.49528C25.5794 9.71608 24.7026 9.95015 24.1011 9.94943C23.6694 9.94889 22.1893 9.75357 21.6573 9.62685L21.4057 9.56694L21.6749 9.85706C22.9356 11.216 25.2019 11.52 26.8546 10.5519C28.0276 9.86486 28.8979 8.31587 28.8979 6.91522C28.8979 6.45793 28.6973 5.58183 28.516 5.24651L28.4044 5.04024L27.6381 5.19682ZM20.4745 11.217C19.1925 11.4297 17.9755 12.4036 17.3331 13.7309C16.886 14.6543 16.2417 16.871 15.9688 18.4249C15.6076 20.4803 15.7102 24.223 16.1648 25.5831C16.5372 26.697 17.1974 27.4232 18.1677 27.786C18.43 27.8841 20.3296 28.2244 22.4882 28.5599C24.6071 28.8893 26.3451 29.1651 26.3505 29.1728C26.3559 29.1805 26.9565 30.7001 27.6853 32.5498C29.1909 36.3717 29.1393 36.2573 29.5407 36.6667C30.1498 37.2881 31.2724 37.5243 32.0448 37.1937C32.8943 36.8299 33.4715 35.9554 33.473 35.0297C33.4738 34.5599 33.3005 34.0653 31.8074 30.2766C30.8908 27.9508 30.0574 25.9128 29.9554 25.7478C29.7255 25.376 29.1548 24.9544 28.727 24.8402C28.5495 24.7929 27.2133 24.5705 25.7574 24.3459C24.3016 24.1214 22.9732 23.9125 22.8055 23.8817L22.5006 23.8258L22.5653 22.5602C22.6008 21.8642 22.6784 20.9517 22.7377 20.5324L22.8455 19.7702L21.8116 18.7373C20.3864 17.3136 19.1456 15.5016 18.9823 14.6053C18.8485 13.8709 19.2773 13.078 20.0087 12.7077C21.0458 12.1825 21.9274 12.5306 22.6279 13.7418C23.1394 14.6261 23.6032 15.2523 23.7016 15.1914C23.8271 15.114 23.7968 13.9091 23.6561 13.3808C23.3882 12.3752 22.8274 11.6233 22.1361 11.3429C21.7288 11.1777 21.03 11.1248 20.4745 11.217ZM20.3455 12.9497C19.334 13.3103 19.0817 14.266 19.7 15.3943C21.1658 18.0689 23.6259 20.2092 26.3645 21.1924C27.7601 21.6935 30.3029 22.0166 31.1145 21.7961C32.1187 21.5233 32.5859 20.5326 32.1308 19.6411C31.8159 19.0242 31.4797 18.8952 29.9822 18.8164C28.0166 18.713 26.942 18.3779 25.4997 17.4188C24.1802 16.5412 23.2943 15.5546 22.1235 13.6592C21.9398 13.3616 21.7274 13.1593 21.454 13.0216C20.9957 12.7906 20.8234 12.7793 20.3455 12.9497ZM0.589269 14.8677L0.540817 27.273L0.839605 27.5716C1.05315 27.785 1.25217 27.8867 1.53678 27.9278C1.75589 27.9595 4.56144 27.9732 7.7714 27.9583C13.247 27.9329 13.6231 27.9211 13.8578 27.7673C14.3687 27.4326 14.3622 27.5181 14.3622 21.1154C14.3622 14.7953 14.3635 14.8129 13.9031 14.4907C13.7149 14.3588 13.0765 14.3444 7.43474 14.3444H1.17536L0.589269 14.8677ZM36.7489 18.9533C35.9892 19.1922 35.3804 19.6979 35.0165 20.3923C34.8107 20.7846 34.7782 20.9559 34.7766 21.6535C34.7752 22.3181 34.8115 22.535 34.9825 22.8817C35.4218 23.7732 36.3202 24.3944 37.2693 24.463C37.7451 24.4975 37.816 24.4783 38.0533 24.2509C38.9928 23.3514 38.9143 19.6501 37.9414 18.9689C37.7041 18.8028 37.2467 18.7968 36.7489 18.9533ZM32.6664 20.6526C32.6664 20.9164 32.3341 21.477 32.0084 21.7628C31.5467 22.1681 30.9692 22.2731 29.6004 22.2009C28.4923 22.1424 28.4492 22.1468 28.4492 22.3177C28.4492 22.5979 28.8192 22.9546 29.167 23.0097C29.4016 23.047 29.7288 22.9666 30.4598 22.6921C30.9982 22.4899 31.4458 22.335 31.4547 22.3478C31.4636 22.3605 32.3903 25.0593 33.5139 28.3451C34.6376 31.6309 35.5902 34.3732 35.6309 34.439C35.6867 34.5293 35.8112 34.4594 36.1372 34.1546C36.3749 33.9324 36.8191 33.6043 37.1242 33.4256C39.9245 31.7853 43.459 32.408 45.4701 34.8958C45.8825 35.4059 46.0029 35.5035 46.1596 35.4546C46.5536 35.3319 46.5588 34.9694 46.176 34.3171C45.0031 32.3187 42.8412 31.0163 40.459 30.8729L39.593 30.8208L39.2281 29.8692C38.4232 27.7708 37.0359 26.2489 34.9135 25.1356L34.2591 24.7923L33.5583 22.74C32.9016 20.8167 32.6664 20.2662 32.6664 20.6526ZM4.78208 29.0226C4.71936 29.0478 4.60828 29.1839 4.53533 29.325C4.36871 29.6469 4.34691 31.7397 4.50698 32.0401C4.64067 32.2909 4.85368 32.4537 5.05314 32.4573C5.25664 32.461 5.25252 32.5044 4.98693 33.1577C4.02955 35.5127 3.2387 38.5106 3.23691 39.7917L3.23619 40.2625H6.33318L6.33246 39.0742C6.33183 38.078 6.36575 37.7771 6.54188 37.2133C6.98288 35.8016 7.79814 34.6116 8.85951 33.8301C9.90149 33.0627 10.8294 32.6952 12.0804 32.5543C15.2367 32.1987 18.2389 34.2722 19.086 37.3927C19.1997 37.8114 19.2433 38.2976 19.2408 39.119L19.2374 40.2625H34.0723L33.9914 39.702C33.9469 39.3937 33.9346 38.8893 33.9639 38.581L34.0173 38.0204H22.0955L21.8056 37.3254C21.2328 35.9517 20.808 34.3464 20.6798 33.0713C20.6213 32.4892 20.627 32.4654 20.878 32.2496L21.1366 32.0273V30.7263C21.1366 29.4729 21.1286 29.417 20.9191 29.194L20.7015 28.9626L12.7988 28.9696C8.45233 28.9735 4.8448 28.9974 4.78208 29.0226ZM11.4663 33.5871C10.3629 33.8544 9.2185 34.579 8.49154 35.471C6.38001 38.0618 6.98522 41.8539 9.80046 43.6726C10.6979 44.2524 11.6138 44.5082 12.792 44.5082C13.619 44.5082 13.8953 44.4697 14.4968 44.2707C16.3028 43.6731 17.7136 42.142 18.184 40.2686C18.3875 39.4585 18.3229 38.0017 18.0486 37.2133C17.4266 35.4256 15.9174 34.0544 14.0518 33.5821C13.3961 33.4161 12.1627 33.4184 11.4663 33.5871ZM39.1266 33.5822C38.8552 33.6562 38.2989 33.8804 37.8904 34.0804C36.5263 34.7488 35.4016 36.1694 35.0472 37.6719C34.8732 38.4098 34.8724 39.6304 35.0454 40.3109C35.7683 43.1532 38.6496 45.0072 41.4595 44.4381C43.5464 44.0154 45.0331 42.7019 45.729 40.6661C46.0337 39.7744 46.071 38.4995 45.8195 37.572C45.3439 35.8188 43.9791 34.3489 42.265 33.7442C41.4219 33.4468 39.91 33.3687 39.1266 33.5822ZM13.8495 37.1014C15.1647 37.8169 15.3533 39.6214 14.2171 40.6185C13.7595 41.02 13.385 41.1597 12.7725 41.1573C11.4625 41.1524 10.4869 40.068 10.6213 38.7662C10.7847 37.1841 12.436 36.3325 13.8495 37.1014ZM41.3315 36.9864C42.1506 37.3274 42.6776 38.2205 42.6036 39.1423C42.5535 39.7671 42.3953 40.1205 41.98 40.5356C41.5661 40.9494 41.059 41.155 40.4472 41.1573C39.8347 41.1597 39.4602 41.02 39.0026 40.6185C37.6697 39.4487 38.2218 37.2828 39.964 36.8476C40.3047 36.7625 40.9511 36.8281 41.3315 36.9864Z" fill="#FF9E0C"/>
</svg>
